<svg xmlns="http://www.w3.org/2000/svg" width="224" height="714" viewBox="0 0 224 714" fill="none"><g opacity="0.2"><path d="M28.4204 197.884V198.596H29.1318H82.927C99.6256 198.596 113.214 185.007 113.214 168.309V162.675H140.923V168.343C140.923 200.322 114.907 226.339 82.927 226.339H29.1318H28.4204V227.05V228.892C28.4204 249.856 45.4889 266.888 66.4507 266.888H140.923V294.597H66.4507C30.7132 294.597 1.55532 265.946 0.745415 230.411L0.729569 229.716H0.711454V228.858V162.641H28.4204V197.884Z" stroke="#292321" stroke-width="1.42291"></path><path d="M170.932 132.327V126.693C170.932 94.7817 196.88 68.8338 228.792 68.8338H282.45H283.162V68.1223V66.2802C283.162 45.3517 266.162 28.3522 245.234 28.3522H170.932V0.711454H245.234C280.903 0.711454 309.993 29.2951 310.803 64.7614L310.819 65.4566H310.837V66.3143V132.361H283.196V97.2201V96.5087H282.484H228.826C212.161 96.5087 198.607 110.063 198.607 126.727V132.327H170.932Z" stroke="#292321" stroke-width="1.42291"></path><path d="M170.932 294.563V288.929C170.932 257.018 196.88 231.07 228.792 231.07H282.45H283.162V230.359V228.517C283.162 207.588 266.162 190.589 245.234 190.589H170.932V162.948H245.234C280.903 162.948 309.993 191.531 310.803 226.998L310.819 227.693H310.837V228.551V294.597H283.196V259.456V258.745H282.484H228.826C212.161 258.745 198.607 272.299 198.607 288.964V294.563H170.932Z" stroke="#292321" stroke-width="1.42291"></path><path d="M28.4204 615.865V616.577H29.1318H82.927C99.6256 616.577 113.214 602.989 113.214 586.29V580.657H140.923V586.324C140.923 618.304 114.907 644.32 82.927 644.32H29.1318H28.4204V645.032V646.874C28.4204 667.837 45.4889 684.87 66.4507 684.87H140.923V712.579H66.4507C30.7132 712.579 1.55532 683.927 0.745415 648.392L0.729569 647.697H0.711454V646.839V580.623H28.4204V615.865Z" stroke="#292321" stroke-width="1.42291"></path><path d="M170.932 550.27V544.637C170.932 512.725 196.88 486.777 228.792 486.777H282.45H283.162V486.066V484.224C283.162 463.295 266.162 446.296 245.234 446.296H170.932V418.655H245.234C280.903 418.655 309.993 447.238 310.803 482.705L310.819 483.4H310.837V484.258V550.304H283.196V515.163V514.452H282.484H228.826C212.161 514.452 198.607 528.006 198.607 544.671V550.27H170.932Z" stroke="#292321" stroke-width="1.42291"></path><path d="M170.932 712.506V706.873C170.932 674.961 196.88 649.013 228.792 649.013H282.45H283.162V648.302V646.46C283.162 625.531 266.162 608.532 245.234 608.532H170.932V580.891H245.234C280.903 580.891 309.993 609.475 310.803 644.941L310.819 645.636H310.837V646.494V712.54H283.196V677.4V676.688H282.484H228.826C212.161 676.688 198.607 690.242 198.607 706.907V712.506H170.932Z" stroke="#292321" stroke-width="1.42291"></path></g></svg>